<?xml version="1.0" encoding="UTF-8"?>
<!DOCTYPE svg PUBLIC "-//W3C//DTD SVG 1.1//EN" "http://www.w3.org/Graphics/SVG/1.1/DTD/svg11.dtd">
<svg xmlns="http://www.w3.org/2000/svg" version="1.1" width="512px" height="512px" style="shape-rendering:geometricPrecision; text-rendering:geometricPrecision; image-rendering:optimizeQuality; fill-rule:evenodd; clip-rule:evenodd" xmlns:xlink="http://www.w3.org/1999/xlink">
<g><path style="opacity:0.984" fill="#373737" d="M 124.5,-0.5 C 137.833,-0.5 151.167,-0.5 164.5,-0.5C 181.073,1.30407 196.407,6.80407 210.5,16C 213.206,18.3706 215.539,21.0372 217.5,24C 250.266,31.4765 265.933,52.1431 264.5,86C 263.899,113.641 260.066,140.808 253,167.5C 248.487,176.847 241.32,183.18 231.5,186.5C 227.183,215.159 212.85,237.159 188.5,252.5C 187.335,260.479 187.168,268.479 188,276.5C 197.567,284.034 207.401,291.2 217.5,298C 224.31,298.462 230.976,299.629 237.5,301.5C 237.705,298.012 238.539,294.679 240,291.5C 248.5,277 257,262.5 265.5,248C 257.397,247.937 249.397,247.27 241.5,246C 236.189,239.914 236.855,234.58 243.5,230C 276.172,229.833 308.838,229.333 341.5,228.5C 350.38,207.894 365.713,200.394 387.5,206C 397.988,210.488 404.988,218.154 408.5,229C 441.167,229.333 473.833,229.667 506.5,230C 508.687,231.025 510.354,232.525 511.5,234.5C 511.5,237.167 511.5,239.833 511.5,242.5C 510.254,244.901 508.254,246.401 505.5,247C 498.5,247.333 491.5,247.667 484.5,248C 493.919,263.349 502.919,278.849 511.5,294.5C 511.5,301.5 511.5,308.5 511.5,315.5C 507.779,327.722 499.779,335.889 487.5,340C 476.884,341.541 466.217,341.875 455.5,341C 439,337.833 429.167,328 426,311.5C 425.333,306.167 425.333,300.833 426,295.5C 434.833,279.833 443.667,264.167 452.5,248.5C 437.603,247.177 422.77,247.177 408,248.5C 406.777,252.615 404.777,256.282 402,259.5C 401.5,315.499 401.333,371.499 401.5,427.5C 417.841,432.804 426.507,444.137 427.5,461.5C 434.196,464.696 439.029,469.696 442,476.5C 443.563,484.087 443.896,491.754 443,499.5C 441.064,504.932 437.564,508.932 432.5,511.5C 394.167,511.5 355.833,511.5 317.5,511.5C 312.436,508.932 308.936,504.932 307,499.5C 305.874,490.658 306.541,481.992 309,473.5C 312.408,468.258 316.908,464.258 322.5,461.5C 323.493,444.137 332.159,432.804 348.5,427.5C 348.333,383.832 348.5,340.165 349,296.5C 350.219,292.108 353.052,289.774 357.5,289.5C 361.562,289.724 364.395,291.724 366,295.5C 366.5,339.165 366.667,382.832 366.5,426.5C 372.167,426.5 377.833,426.5 383.5,426.5C 383.5,374.833 383.5,323.167 383.5,271.5C 374.463,273.47 365.796,272.47 357.5,268.5C 349.664,263.681 344.331,256.848 341.5,248C 326.822,247.167 312.155,247.334 297.5,248.5C 306,263.5 314.5,278.5 323,293.5C 327.711,324.794 314.211,340.961 282.5,342C 287.031,350.932 289.531,360.432 290,370.5C 290.667,407.167 290.667,443.833 290,480.5C 287.389,496.269 278.556,506.603 263.5,511.5C 184.167,511.5 104.833,511.5 25.5,511.5C 12.5,507.167 3.83333,498.5 -0.5,485.5C -0.5,444.5 -0.5,403.5 -0.5,362.5C 5.30646,334.519 21.3065,314.686 47.5,303C 56.7709,300.281 66.1043,297.947 75.5,296C 84,289.5 92.5,283 101,276.5C 101.667,268.5 101.667,260.5 101,252.5C 76.5476,237.293 62.3809,215.293 58.5,186.5C 46.9364,183.102 39.1031,175.768 35,164.5C 27.8026,135.256 24.4693,105.589 25,75.5C 27.5004,46.6634 43.0004,29.4968 71.5,24C 77.4869,16.1621 85.1535,10.4954 94.5,7C 104.397,3.52575 114.397,1.02575 124.5,-0.5 Z M 280.5,257.5 C 287.185,267.687 293.518,278.187 299.5,289C 287.167,289.667 274.833,289.667 262.5,289C 268.638,278.554 274.638,268.054 280.5,257.5 Z M 468.5,257.5 C 475.185,267.687 481.518,278.187 487.5,289C 475.167,289.667 462.833,289.667 450.5,289C 456.638,278.554 462.638,268.054 468.5,257.5 Z"/></g>
<g><path style="opacity:1" fill="#a87765" d="M 127.5,16.5 C 145.711,15.626 163.711,17.126 181.5,21C 193.089,24.2665 202.089,30.9332 208.5,41C 228.005,41.4827 240.505,50.9827 246,69.5C 246.667,81.8333 246.667,94.1667 246,106.5C 245.937,113.372 244.77,120.039 242.5,126.5C 238.779,123.973 234.779,121.973 230.5,120.5C 224.712,92.2143 207.879,74.5477 180,67.5C 178.112,67.796 176.278,68.296 174.5,69C 161.872,84.7406 146.205,88.7406 127.5,81C 123.353,78.0196 119.686,74.5196 116.5,70.5C 113.198,67.9509 109.531,67.1176 105.5,68C 79.2826,76.0459 63.9492,93.5459 59.5,120.5C 54.5553,121.139 50.2219,123.139 46.5,126.5C 42.876,108.01 41.7093,89.3436 43,70.5C 48.0184,51.2325 60.5184,41.3992 80.5,41C 83.407,37.8492 86.0736,34.5159 88.5,31C 100.262,22.6922 113.262,17.8589 127.5,16.5 Z"/></g>
<g><path style="opacity:1" fill="#f8d5bc" d="M 105.5,85.5 C 110.919,90.3866 116.919,94.5532 123.5,98C 145.918,106.209 165.584,102.043 182.5,85.5C 200.337,92.511 210.504,105.511 213,124.5C 216.37,132.782 222.536,137.616 231.5,139C 240.757,148.301 240.757,157.634 231.5,167C 225.525,168.403 220.358,171.237 216,175.5C 215,177.5 214,179.5 213,181.5C 209.075,216.09 190.242,237.59 156.5,246C 116.684,249.515 90.5176,232.349 78,194.5C 77.616,187.754 75.9494,181.421 73,175.5C 71.4422,173.641 69.6089,172.141 67.5,171C 52.0467,166.596 47.5467,157.096 54,142.5C 58.3476,138.242 63.5142,135.408 69.5,134C 71,132.5 72.5,131 74,129.5C 76.4724,108.823 86.9724,94.1561 105.5,85.5 Z"/></g>
<g><path style="opacity:1" fill="#f7b769" d="M 369.5,221.5 C 388.599,221.43 395.099,230.43 389,248.5C 379.594,257.779 370.261,257.779 361,248.5C 355.17,236.816 358.004,227.816 369.5,221.5 Z"/></g>
<g><path style="opacity:1" fill="#e5bea6" d="M 118.5,260.5 C 131.643,263.376 144.977,264.209 158.5,263C 162.405,261.641 166.405,260.808 170.5,260.5C 170.829,266.206 170.495,271.872 169.5,277.5C 161.343,283.745 153.01,289.745 144.5,295.5C 136.167,289.5 127.833,283.5 119.5,277.5C 118.505,271.872 118.171,266.206 118.5,260.5 Z"/></g>
<g><path style="opacity:1" fill="#e5a254" d="M 357.5,268.5 C 365.796,272.47 374.463,273.47 383.5,271.5C 383.5,323.167 383.5,374.833 383.5,426.5C 377.833,426.5 372.167,426.5 366.5,426.5C 366.667,382.832 366.5,339.165 366,295.5C 364.395,291.724 361.562,289.724 357.5,289.5C 357.5,282.5 357.5,275.5 357.5,268.5 Z"/></g>
<g><path style="opacity:1" fill="#e1edfb" d="M 108.5,292.5 C 109.873,292.343 111.207,292.51 112.5,293C 118.833,298 125.167,303 131.5,308C 124.683,315.651 117.683,323.151 110.5,330.5C 103.345,323.177 96.3446,315.677 89.5,308C 96.0222,302.969 102.356,297.803 108.5,292.5 Z"/></g>
<g><path style="opacity:1" fill="#e0edfb" d="M 178.5,291.5 C 185.644,296.81 192.644,302.31 199.5,308C 192.668,315.665 185.668,323.165 178.5,330.5C 171.317,323.151 164.317,315.651 157.5,308C 164.569,302.48 171.569,296.98 178.5,291.5 Z"/></g>
<g><path style="opacity:1" fill="#d39f5f" d="M 443.5,307.5 C 460.325,306.503 477.325,306.17 494.5,306.5C 494.768,308.099 494.434,309.432 493.5,310.5C 493.5,309.5 493.5,308.5 493.5,307.5C 476.833,307.5 460.167,307.5 443.5,307.5 Z"/></g>
<g><path style="opacity:1" fill="#f6b668" d="M 255.5,306.5 C 272.5,306.5 289.5,306.5 306.5,306.5C 306.213,314.237 302.547,319.737 295.5,323C 285.833,323.667 276.167,323.667 266.5,323C 259.464,319.764 255.797,314.264 255.5,306.5 Z"/></g>
<g><path style="opacity:1" fill="#f9b869" d="M 443.5,307.5 C 460.167,307.5 476.833,307.5 493.5,307.5C 493.5,308.5 493.5,309.5 493.5,310.5C 492.431,317.404 488.431,321.57 481.5,323C 472.5,323.667 463.5,323.667 454.5,323C 447.496,320.168 443.829,315.001 443.5,307.5 Z"/></g>
<g><path style="opacity:1" fill="#4a87a8" d="M 57.5,317.5 C 58.9778,317.238 60.3112,317.571 61.5,318.5C 52.6667,337.5 43.8333,356.5 35,375.5C 32.6447,382.345 33.6447,388.678 38,394.5C 62.289,427.578 86.4556,460.745 110.5,494C 83.1667,494.667 55.8333,494.667 28.5,494C 22.9122,491.414 19.0789,487.247 17,481.5C 16.3333,442.833 16.3333,404.167 17,365.5C 22.3259,342.466 35.8259,326.466 57.5,317.5 Z"/></g>
<g><path style="opacity:1" fill="#4a87a8" d="M 227.5,317.5 C 232.014,318.421 236.348,319.921 240.5,322C 243.813,324.983 246.813,328.317 249.5,332C 252.502,334.503 255.835,336.503 259.5,338C 265.039,344.578 268.873,352.078 271,360.5C 272.644,401.12 272.977,441.787 272,482.5C 269.414,488.088 265.247,491.921 259.5,494C 232.5,494.667 205.5,494.667 178.5,494C 204.054,459.446 229.221,424.613 254,389.5C 255.325,385.572 255.658,381.572 255,377.5C 245.548,357.598 236.381,337.598 227.5,317.5 Z"/></g>
<g><path style="opacity:1" fill="#ee7080" d="M 143.5,319.5 C 144.239,319.369 144.906,319.536 145.5,320C 150.467,325.969 155.801,331.635 161.5,337C 160.5,338 159.5,339 158.5,340C 149.167,340.667 139.833,340.667 130.5,340C 129.5,339 128.5,338 127.5,337C 133.409,331.596 138.742,325.763 143.5,319.5 Z"/></g>
<g><path style="opacity:1" fill="#fbfbfb" d="M 87.5,331.5 C 92.2694,336.771 97.2694,341.938 102.5,347C 106.903,349.045 111.57,350.045 116.5,350C 117,350.5 117.5,351 118,351.5C 117.166,370.509 115.833,389.509 114,408.5C 100.488,384.465 91.6549,358.799 87.5,331.5 Z"/></g>
<g><path style="opacity:1" fill="#fbfbfb" d="M 200.5,331.5 C 197.661,358.691 189.327,384.358 175.5,408.5C 173.446,389.848 171.946,371.182 171,352.5C 171.833,351.667 172.667,350.833 173.5,350C 178.056,349.891 182.389,348.891 186.5,347C 191.744,342.261 196.41,337.095 200.5,331.5 Z"/></g>
<g><path style="opacity:1" fill="#5f9bc5" d="M 217.5,338.5 C 224.543,352.255 231.376,366.255 238,380.5C 238.667,381.5 238.667,382.5 238,383.5C 211.167,420.333 184.333,457.167 157.5,494C 148.833,494.667 140.167,494.667 131.5,494C 104.378,456.922 77.3777,419.755 50.5,382.5C 57.3495,368.136 64.1828,353.803 71,339.5C 78.311,382.78 96.311,420.78 125,453.5C 129.865,458.7 135.032,463.533 140.5,468C 145.131,469.261 149.131,468.261 152.5,465C 188.278,430.281 209.945,388.115 217.5,338.5 Z"/></g>
<g><path style="opacity:1" fill="#c95869" d="M 135.5,357.5 C 141.758,357.19 147.924,357.524 154,358.5C 156.581,383.126 158.247,407.793 159,432.5C 155.062,438.606 150.229,443.94 144.5,448.5C 139.442,443.397 134.609,438.064 130,432.5C 131.118,407.415 132.952,382.415 135.5,357.5 Z"/></g>
<g><path style="opacity:1" fill="#fab969" d="M 408.5,456.5 C 408.5,457.5 408.5,458.5 408.5,459.5C 386.167,459.5 363.833,459.5 341.5,459.5C 341.5,458.5 341.5,457.5 341.5,456.5C 343.152,450.674 346.819,446.507 352.5,444C 359.833,443.833 367.167,443.667 374.5,443.5C 382.906,443.379 391.239,443.879 399.5,445C 404.243,447.565 407.243,451.398 408.5,456.5 Z"/></g>
<g><path style="opacity:1" fill="#cd9b5e" d="M 341.5,456.5 C 341.5,457.5 341.5,458.5 341.5,459.5C 363.833,459.5 386.167,459.5 408.5,459.5C 408.5,458.5 408.5,457.5 408.5,456.5C 409.434,457.568 409.768,458.901 409.5,460.5C 386.5,460.5 363.5,460.5 340.5,460.5C 340.232,458.901 340.566,457.568 341.5,456.5 Z"/></g>
<g><path style="opacity:1" fill="#e5a254" d="M 425.5,483.5 C 425.5,486.833 425.5,490.167 425.5,493.5C 391.833,493.5 358.167,493.5 324.5,493.5C 324.5,490.167 324.5,486.833 324.5,483.5C 325.203,481.284 326.536,479.451 328.5,478C 359.167,477.333 389.833,477.333 420.5,478C 423.079,479.076 424.746,480.909 425.5,483.5 Z"/></g>
<g><path style="opacity:1" fill="#d39751" d="M 324.5,483.5 C 324.5,486.833 324.5,490.167 324.5,493.5C 358.167,493.5 391.833,493.5 425.5,493.5C 425.5,490.167 425.5,486.833 425.5,483.5C 426.482,486.962 426.815,490.629 426.5,494.5C 392.167,494.5 357.833,494.5 323.5,494.5C 323.185,490.629 323.518,486.962 324.5,483.5 Z"/></g>
</svg>
